<svg width="1026" height="450" viewBox="0 0 1026 450" fill="none" xmlns="http://www.w3.org/2000/svg">
<path d="M65.4809 46.6505C-66.2958 -25.5392 -229.905 1.86612 -295.237 24.5925C-297.322 131.54 -300.241 347.04 -295.237 353.457C-290.233 359.874 495.006 356.131 887 353.457V249.183C803.597 185.014 724.364 130.872 480.411 158.946C294.072 180.389 230.202 136.888 65.4809 46.6505Z" fill="white" fill-opacity="0.04"/>
<path d="M191.946 190.576C57.1691 143.08 -104.937 173.571 -169.143 194.754C-166.448 276.627 -159.738 441.527 -154.456 446.141C-149.174 450.754 634.561 402.092 1025.77 377.185L1021.11 297.477C934.985 253.291 853.469 216.525 611.184 252.214C426.12 279.474 360.416 249.947 191.946 190.576Z" fill="white" fill-opacity="0.04"/>
</svg>
