<svg width="1118" height="307" viewBox="0 0 1118 307" fill="none" xmlns="http://www.w3.org/2000/svg">
<path d="M180.717 200.628C-68.3777 189.022 -119.029 334.672 -199.663 301.033C-203.295 140.237 -248.478 -176.064 -242.383 -185.754C-236.288 -195.444 631.569 -176.944 1114.04 -176.124L1115.08 -19.3315C1013.07 77.837 1094.44 103.301 724.035 98.4648C462.355 95.0482 459.54 213.62 180.717 200.628Z" fill="white" fill-opacity="0.04"/>
<path d="M9.71693 137.628C-239.378 126.022 -290.029 271.672 -370.663 238.033C-374.295 77.2372 -419.478 -239.064 -413.383 -248.754C-407.288 -258.444 460.569 -239.944 943.037 -239.124L944.077 -82.3315C842.07 14.837 923.445 40.3011 553.035 35.4648C291.355 32.0482 288.54 150.62 9.71693 137.628Z" fill="white" fill-opacity="0.04"/>
</svg>
